<?xml version="1.0" encoding="UTF-8"?>
<svg id="Calque_2" xmlns="http://www.w3.org/2000/svg" viewBox="0 0 43.04 24.51">
  <defs>
    <style>
      .cls-1 {
        fill: #ff8000;
      }
    </style>
  </defs>
  <g id="OBJECTS">
    <g>
      <g>
        <path class="cls-1" d="M0,24.28v-11.32h6.15c.41,0,.78.1,1.1.3.32.2.56.46.72.76.16.31.25.64.28,1.01s-.03.71-.15,1.04c-.13.32-.35.61-.67.87-.32.25-.7.41-1.17.48v.12c.58.06,1.06.29,1.44.71.39.41.58.92.58,1.51v2.75c0,.74-.36,1.3-1.07,1.68-.71.39-1.45.44-2.21.16-.96-.37-1.53-1.15-1.73-2.33h-.12l-.02,2.28H0ZM4.1,13.84h-.24v2.73h.24v-2.73ZM4.1,21.44v-3.51h-.24v3.23c0,.16.08.25.24.28Z"/>
        <path class="cls-1" d="M16.82,15.15v6.93c0,.52-.21.97-.61,1.34s-.92.65-1.53.81c-.61.17-1.27.25-1.99.25s-1.38-.08-2-.25c-.62-.17-1.13-.44-1.54-.81s-.61-.82-.61-1.34v-6.93c0-.44.15-.83.46-1.18.31-.34.7-.61,1.18-.79s1.02-.31,1.62-.39,1.18-.08,1.77,0c.59.08,1.13.21,1.62.39s.88.44,1.18.79c.3.35.45.74.45,1.18ZM12.96,23.16v-9.33c-.16.02-.24.12-.24.28v9.33c.16-.02.24-.12.24-.28Z"/>
        <path class="cls-1" d="M25.46,12.96v9.13c0,.44-.15.83-.45,1.18s-.69.62-1.18.79c-.49.18-1.03.31-1.62.39-.59.08-1.18.08-1.77,0-.59-.08-1.13-.21-1.61-.39-.49-.18-.88-.44-1.18-.79s-.46-.75-.46-1.18v-9.13h4.18v10.48c.16-.02.24-.12.24-.28v-10.2h3.85Z"/>
        <path class="cls-1" d="M30.07,24.28h-4.18v-11.32h5.56v2.33h-1.38v2.18h1.38v2.32h-1.38v4.49Z"/>
        <path class="cls-1" d="M35.86,24.28h-4.18v-11.32h5.56v2.33h-1.38v2.18h1.38v2.32h-1.38v4.49Z"/>
        <path class="cls-1" d="M43.04,24.28h-5.56v-11.32h5.56v2.33h-1.38v2.18h1.38v2.32h-1.38v2.18h1.38v2.32Z"/>
      </g>
      <g>
        <path class="cls-1" d="M3.89,7.86H.03V0h2.9v6.25h.96v1.61Z"/>
        <path class="cls-1" d="M6.88,4.75v-.89c-.11.02-.17.08-.17.19v.6h-2.62v-2.41h2.12v1.45h.08c.06-.39.18-.71.34-.95s.34-.41.55-.5c.21-.09.46-.14.74-.14s.54.06.77.17c.24.11.43.28.58.49.15.22.22.46.22.73v4.37h-2.14v-1.45h-.08c-.1.57-.31.98-.65,1.23s-.74.37-1.19.37c-.44,0-.82-.13-1.15-.39s-.49-.59-.49-1,.12-.74.35-1.01c.23-.27.55-.45.95-.53l1.78-.32ZM6.88,5.95v-.64l-.17.04v.9c.11-.02.17-.12.17-.3Z"/>
        <path class="cls-1" d="M16.06.19l.02,3.7h.08c.14-.86.5-1.42,1.1-1.68.46-.19.89-.15,1.3.12.38.25.58.62.58,1.12v2.87c0,.43-.15.8-.45,1.1s-.66.45-1.09.45h-4.44V.8l2.26-.61h.64ZM16.23,7.25v-2.99c-.11.02-.17.08-.17.2v2.78h.17Z"/>
        <path class="cls-1" d="M25.06,3.78v2.54c0,.35-.14.66-.43.92-.28.26-.64.45-1.06.57s-.88.18-1.38.18-.96-.06-1.39-.18c-.43-.12-.78-.31-1.07-.57s-.43-.57-.43-.92v-2.54c0-.35.14-.66.43-.92s.64-.45,1.07-.57c.43-.12.89-.17,1.39-.17s.96.06,1.38.17c.42.12.78.31,1.06.57.28.26.43.57.43.92ZM22.38,7.06V2.84c-.11.02-.17.08-.17.2v4.2c.11-.02.17-.08.17-.19Z"/>
        <path class="cls-1" d="M27.96,7.86h-2.68V2.24h2.18v1.58h.08c.14-.82.53-1.36,1.19-1.61.54-.21,1.06-.18,1.56.1.49.26.73.66.73,1.18v4.37h-2.9v-3.65c-.11.02-.17.08-.17.19v3.46Z"/>
        <path class="cls-1" d="M33.99,7.86h-2.68V2.24h2.18v1.58h.08c.14-.82.53-1.36,1.19-1.61.54-.21,1.06-.18,1.56.1.49.26.73.66.73,1.18v4.37h-2.9v-3.65c-.11.02-.17.08-.17.19v3.46Z"/>
        <path class="cls-1" d="M43.01,5.05v1.25c0,.35-.14.66-.43.92-.28.26-.64.45-1.06.57s-.88.18-1.38.18-.96-.06-1.39-.18c-.43-.12-.78-.31-1.07-.57-.28-.26-.43-.57-.43-.92v-2.54c0-.35.14-.66.43-.92.28-.26.64-.45,1.07-.57.43-.12.89-.17,1.39-.17s.96.06,1.38.17c.42.12.78.31,1.06.57.28.26.43.57.43.92v1.13h-2.84v2.34c.11-.02.17-.08.17-.19v-1.98h2.68ZM40.33,4.28v-1.46c-.11.02-.17.08-.17.2v1.26h.17Z"/>
      </g>
      <path class="cls-1" d="M39.92,11.31s2.94-.16,2.94-.2c0-.04-2.94-.24-2.94-.24v-.13s2.94-.15,2.94-.2c0-.04-2.94-.24-2.94-.24v-.09s3.12-.17,3.12-.21c0-.04-2.39-.23-3.13-.25-.39-.01-1.11-.02-1.55.71H0v.67h38.35c.4.7,1.16.75,1.56.73.73-.02,3.11-.15,3.11-.21,0-.06-3.11-.25-3.11-.25v-.1Z"/>
    </g>
  </g>
</svg>